{"title":"Goray Gondogol (2012) - Bengali - Original DVD RIP","uid":7582605,"size":978483978,"categoryP":"video","categoryS":"movies","magnet":"?xt=urn:btih:44a01bfccb8f2f2dd7c0b7f860597f71df35da1e&amp;dn=Goray+Gondogol+%282012%29+-+Bengali+-+Original+DVD+RIP&amp;tr=udp%3A%2F%2Ftracker.openbittorrent.com%3A80&amp;tr=udp%3A%2F%2Fopen.demonii.com%3A1337&amp;tr=udp%3A%2F%2Ftracker.coppersurfer.tk%3A6969&amp;tr=udp%3A%2F%2Fexodus.desync.com%3A6969","seeders":0,"leechers":5,"uploader":null,"files":-1,"time":1346291519,"description":"\n\n\n___________________________________________________________________________________\n\n\n           I Never Give Any Second Chance To My Friends ! I Never Give !                 \n\n___________________________________________________________________________________\n\n\n\n\n\nNote : It Will Be Seeded. Thanks. Movie Length Is 2:35:00 ! Hope You Understand ! \n\n       Additional English Subtitle Available. Enjoy !\n\n\n\n\nUpcoming Movies :\n\n\n\nKhokababu (2012) - Original DVD Print\n\nSupriyo Flop Master General (1947)\n\n2nd October Bholebaba 32 year Parben (1955)\n\nBholebabar Ar Biye Habe Na (1957) - Sequel\n\nAmar Rakte Paglami Ache (1937)\n\nToder Buk Chire Rakto Khabo (1938)\n\nAmi Khali Toder Daur Ta Dekchi (1944)\n\nPaglu 2 (20121)\n\nAwara (2012) - Original DVD Print\n\n\n\n\nScreens :\n\n\n  &lt;a href=&quot;\nhttp://www.shotpix.com/images/41448910733930808952.jpg&quot; rel=&quot;nofollow&quot; target=&quot;_NEW&quot;&gt;\nhttp://www.shotpix.com/images/41448910733930808952.jpg&lt;/a&gt;\n  &lt;a href=&quot;\nhttp://www.shotpix.com/images/87846526739087642487.jpg&quot; rel=&quot;nofollow&quot; target=&quot;_NEW&quot;&gt;\nhttp://www.shotpix.com/images/87846526739087642487.jpg&lt;/a&gt;\n\n\n\nExtra Screens :\n\n\n  &lt;a href=&quot;\nhttp://www.shotpix.com/images/92000047800105421024.jpg&quot; rel=&quot;nofollow&quot; target=&quot;_NEW&quot;&gt;\nhttp://www.shotpix.com/images/92000047800105421024.jpg&lt;/a&gt;\n  &lt;a href=&quot;\nhttp://www.shotpix.com/images/02031891274929003309.jpg&quot; rel=&quot;nofollow&quot; target=&quot;_NEW&quot;&gt;\nhttp://www.shotpix.com/images/02031891274929003309.jpg&lt;/a&gt;\n  &lt;a href=&quot;\nhttp://www.shotpix.com/images/56327062852966122226.jpg&quot; rel=&quot;nofollow&quot; target=&quot;_NEW&quot;&gt;\nhttp://www.shotpix.com/images/56327062852966122226.jpg&lt;/a&gt;\n  &lt;a href=&quot;\nhttp://www.shotpix.com/images/33703925194018601338.jpg&quot; rel=&quot;nofollow&quot; target=&quot;_NEW&quot;&gt;\nhttp://www.shotpix.com/images/33703925194018601338.jpg&lt;/a&gt;\n\n\n\nMedia Info :\n\n\n\nFormat                           : AVI\nFormat/Info                      : Audio Video Interleave\nFile size                        : 931 MiB\nDuration                         : 2h 34mn\nOverall bit rate                 : 841 Kbps\n\nVideo\nID                               : 0\nFormat                           : MPEG-4 Visual\nFormat profile                   : Simple@L1\nFormat settings, BVOP            : No\nFormat settings, QPel            : No\nFormat settings, GMC             : No warppoints\nFormat settings, Matrix          : Default (H.263)\nCodec ID                         : DX50\nCodec ID/Hint                    : DivX 5\nDuration                         : 2h 34mn\nBit rate                         : 700 Kbps\nWidth                            : 720 pixels\nHeight                           : 404 pixels\nDisplay aspect ratio             : 16:9\nFrame rate                       : 23.976 fps\nColor space                      : YUV\nChroma subsampling               : 4:2:0\nBit depth                        : 8 bits\nScan type                        : Progressive\nCompression mode                 : Lossy\nBits/(Pixel*Frame)               : 0.100\nStream size                      : 775 MiB (83%)\n\nAudio\nID                               : 1\nFormat                           : MPEG Audio\nFormat version                   : Version 1\nFormat profile                   : Layer 3\nCodec ID                         : 55\nCodec ID/Hint                    : MP3\nDuration                         : 2h 34mn\nBit rate mode                    : Constant\nBit rate                         : 128 Kbps\nChannel(s)                       : 2 channels\nSampling rate                    : 48.0 KHz\nCompression mode                 : Lossy\nStream size                      : 142 MiB (15%)\nAlignment                        : Aligned on interleaves\nInterleave, duration             : 24 ms (0.58 video frame)\nInterleave, preload duration     : 504 ms\n\n\n\n\n___________________________________________________________________________________\n\n\n           I Never Give Any Second Chance To My Friends ! I Never Give !                 \n\n___________________________________________________________________________________\n\n\n\n\n","torrent":{"xt":"urn:btih:44a01bfccb8f2f2dd7c0b7f860597f71df35da1e","amp;dn":"Goray+Gondogol+%282012%29+-+Bengali+-+Original+DVD+RIP","amp;tr":["udp%3A%2F%2Ftracker.openbittorrent.com%3A80","udp%3A%2F%2Fopen.demonii.com%3A1337","udp%3A%2F%2Ftracker.coppersurfer.tk%3A6969","udp%3A%2F%2Fexodus.desync.com%3A6969"],"infoHash":"44a01bfccb8f2f2dd7c0b7f860597f71df35da1e","infoHashBuffer":{"type":"Buffer","data":[68,160,27,252,203,143,47,45,215,192,183,248,96,89,127,113,223,53,218,30]},"announce":[],"urlList":[]}}